<svg xmlns="http://www.w3.org/2000/svg" width="19.805" height="20"><defs><clipPath id="a"><path fill="#fff" stroke="rgba(0,0,0,0)" stroke-miterlimit="10" d="M0 0h19.805v20H0z"/></clipPath></defs><g clip-path="url(#a)"><path d="M15 20h-.586a.444.444 0 00-.086-.036 2.138 2.138 0 01-1.751-2.394 5.813 5.813 0 01.169-.694H9.743l.079.212a2.157 2.157 0 01-1.38 2.812c-.117.035-.235.065-.353.1h-.547a.533.533 0 00-.09-.033A2.162 2.162 0 015.9 16.826c-.058-.016-.1-.027-.141-.04A2.386 2.386 0 014 14.848c-.123-.677-.19-1.365-.281-2.048l-.68-5.123-.693-5.2a1.989 1.989 0 00-.384-1.086.545.545 0 00-.47-.224c-.3.015-.6.008-.9 0a.588.588 0 01-.577-.46.59.59 0 01.321-.649C.369.041.4.02.431 0h1.407A4.514 4.514 0 012.6.4a2.37 2.37 0 01.834 1.5c.072.4.118.807.178 1.231h14.244a1.933 1.933 0 011.857 1.326 2.579 2.579 0 01.041 1.178c-.233 1.727-.459 3.456-.695 5.183a7.527 7.527 0 01-.224 1.264 2.385 2.385 0 01-2.345 1.633H5.024c.045.333.073.643.135.947a1.341 1.341 0 00.2.48 1.253 1.253 0 001.1.548h11.543a1.289 1.289 0 01.329.026.581.581 0 01.415.61.592.592 0 01-.6.531c-.43.009-.859 0-1.289 0-.067 0-.134.006-.214.01.037.1.066.167.092.24a2.155 2.155 0 01-1.38 2.793c-.116.036-.234.067-.35.1M3.78 4.319c.007.09.009.167.02.243.138 1.025.281 2.049.41 3.074.02.163.061.216.233.215 1.334-.008 2.669 0 4 0h.2l-.234-3.532zm.62 4.708c.01.1.014.177.025.254.137 1.024.28 2.047.409 3.072.02.161.073.2.227.2 1.229-.006 2.459 0 3.688 0 .062 0 .125-.007.206-.011l-.235-3.51zm10.126-4.708l-.234 3.516h3.987l.281-2.093c.021-.155.039-.31.063-.464a.77.77 0 00-.821-.97h-3.1c-.051 0-.1.007-.171.012m3.593 4.709h-3.912l-.233 3.5a.9.9 0 00.1.014c.852 0 1.7.008 2.556 0a1.222 1.222 0 001.143-1c.04-.23.067-.463.1-.695.081-.6.16-1.207.241-1.823m-8.3-1.194h3.3l.233-3.516H9.586l.234 3.516m.08 1.2l.234 3.5H12.8l.233-3.5zm-2.1 7.835a.981.981 0 000 1.961.981.981 0 100-1.961m6.905 0a.981.981 0 00-.979.979.985.985 0 101.969-.011.981.981 0 00-.99-.968" fill="#fff" stroke="rgba(0,0,0,0)" stroke-miterlimit="10"/></g></svg>