<svg xmlns="http://www.w3.org/2000/svg" width="2113" height="475"><defs><clipPath id="a"><path fill="#fff" stroke="rgba(0,0,0,0)" stroke-miterlimit="10" d="M0 0h70v70H0z"/></clipPath><clipPath id="b"><path d="M151.168 179.664a28.492 28.492 0 1028.491-28.492 28.524 28.524 0 00-28.491 28.492" transform="translate(-151.168 -151.172)" fill="#fff" stroke="rgba(0,0,0,0)" stroke-miterlimit="10"/></clipPath><clipPath id="c"><path fill="#fff" stroke="rgba(0,0,0,0)" stroke-miterlimit="10" d="M0 0h19.805v20H0z"/></clipPath><clipPath id="d"><path fill="#fff" stroke="rgba(0,0,0,0)" stroke-miterlimit="10" d="M0 0h17.332v20H0z"/></clipPath></defs><path fill="none" stroke="#fff" d="M553 50h1560"/><g transform="translate(473 15)" clip-path="url(#a)" fill="#fff" stroke="rgba(0,0,0,0)" stroke-miterlimit="10"><path d="M35 70A35.009 35.009 0 0121.376 2.751a35.01 35.01 0 0127.248 64.5A34.782 34.782 0 0135 70m0-66.884a31.893 31.893 0 00-12.41 61.263A31.893 31.893 0 0047.41 5.621 31.683 31.683 0 0035 3.116"/><path d="M58.653 25.79h3.313a28.6 28.6 0 00-20.8-18.608v3.2a25.491 25.491 0 0117.481 15.413m4.818 8.058l-3.106.232q.016.458.017.92a25.35 25.35 0 01-9.651 19.906l2 2.386a28.457 28.457 0 0010.766-22.292q0-.579-.023-1.152m-55.99-6.255h3.241a25.5 25.5 0 0115.824-16.533v-3.28A28.613 28.613 0 007.481 27.592m27.518 32.79a25.5 25.5 0 01-3.435-.232l.072 3.146a28.663 28.663 0 003.364.2 28.321 28.321 0 0014.286-3.847l-1.773-2.57A25.227 25.227 0 0135 60.379"/></g><g clip-path="url(#b)" fill="#fff" stroke="rgba(0,0,0,0)" stroke-miterlimit="10" transform="translate(479.508 21.508)"><path d="M10.359 4.561h3.055v51.286h-3.055zM24.04-.258h3.055v57.696H24.04zm33.915 30.457l-23.287-.053v-26.4h3.055v23.356l20.24.046z"/></g><g transform="translate(2093)" fill="#fff"><rect width="20" height="2" rx="1"/><rect width="20" height="2" rx="1" transform="translate(0 9)"/><rect width="20" height="2" rx="1" transform="translate(0 18)"/></g><g clip-path="url(#c)" transform="translate(2015.863)"><path d="M15 20h-.586a.444.444 0 00-.086-.036 2.138 2.138 0 01-1.751-2.394 5.813 5.813 0 01.169-.694H9.743l.079.212a2.157 2.157 0 01-1.38 2.812c-.117.035-.235.065-.353.1h-.547a.533.533 0 00-.09-.033A2.162 2.162 0 015.9 16.826c-.058-.016-.1-.027-.141-.04A2.386 2.386 0 014 14.848c-.123-.677-.19-1.365-.281-2.048l-.68-5.123-.693-5.2a1.989 1.989 0 00-.384-1.086.545.545 0 00-.47-.224c-.3.015-.6.008-.9 0a.588.588 0 01-.577-.46.59.59 0 01.321-.649C.369.041.4.02.431 0h1.407A4.514 4.514 0 012.6.4a2.37 2.37 0 01.834 1.5c.072.4.118.807.178 1.231h14.244a1.933 1.933 0 011.857 1.326 2.579 2.579 0 01.041 1.178c-.233 1.727-.459 3.456-.695 5.183a7.527 7.527 0 01-.224 1.264 2.385 2.385 0 01-2.345 1.633H5.024c.045.333.073.643.135.947a1.341 1.341 0 00.2.48 1.253 1.253 0 001.1.548h11.543a1.289 1.289 0 01.329.026.581.581 0 01.415.61.592.592 0 01-.6.531c-.43.009-.859 0-1.289 0-.067 0-.134.006-.214.01.037.1.066.167.092.24a2.155 2.155 0 01-1.38 2.793c-.116.036-.234.067-.35.1M3.78 4.319c.007.09.009.167.02.243.138 1.025.281 2.049.41 3.074.02.163.061.216.233.215 1.334-.008 2.669 0 4 0h.2l-.234-3.532zm.62 4.708c.01.1.014.177.025.254.137 1.024.28 2.047.409 3.072.02.161.073.2.227.2 1.229-.006 2.459 0 3.688 0 .062 0 .125-.007.206-.011l-.235-3.51zm10.126-4.708l-.234 3.516h3.987l.281-2.093c.021-.155.039-.31.063-.464a.77.77 0 00-.821-.97h-3.1c-.051 0-.1.007-.171.012m3.593 4.709h-3.912l-.233 3.5a.9.9 0 00.1.014c.852 0 1.7.008 2.556 0a1.222 1.222 0 001.143-1c.04-.23.067-.463.1-.695.081-.6.16-1.207.241-1.823m-8.3-1.194h3.3l.233-3.516H9.586l.234 3.516m.08 1.2l.234 3.5H12.8l.233-3.5zm-2.1 7.835a.981.981 0 000 1.961.981.981 0 100-1.961m6.905 0a.981.981 0 00-.979.979.985.985 0 101.969-.011.981.981 0 00-.99-.968" fill="#fff" stroke="rgba(0,0,0,0)" stroke-miterlimit="10"/></g><g clip-path="url(#d)" fill="#fff" stroke="rgba(0,0,0,0)" stroke-miterlimit="10" transform="translate(2055.668)"><path d="M8.659 20H.809C.245 20 0 19.755 0 19.188v-3.1a5.352 5.352 0 014.582-5.361 5.448 5.448 0 01.83-.055q3.248-.006 6.5 0a5.353 5.353 0 015.418 5.388c.006 1.062 0 2.124 0 3.186a.677.677 0 01-.758.758H8.659m7.34-1.344v-2.6a4.017 4.017 0 00-4.054-4.057q-3.279-.006-6.558 0a4.017 4.017 0 00-4.051 4.061v2.395c0 .067.006.133.009.2zM4 4.655a4.665 4.665 0 114.673 4.678 4.671 4.671 0 01-4.67-4.679M8.66 1.333A3.333 3.333 0 1012 4.668a3.34 3.34 0 00-3.34-3.335"/></g><path d="M1951.682 9.61l3.535 3.535m3.855-3.535l-3.536 3.536" fill="none" stroke="#fff" stroke-linecap="round" stroke-width="1.5"/><g fill="#fff" font-size="16" font-family="SegoeUI, Segoe UI"><text transform="translate(1453 1)"><tspan x="-6.031" y="17">O </tspan><tspan x="-15.395" y="89">NAS</tspan></text><text transform="translate(1524 1)"><tspan x="-39.668" y="17">TRANSPOR</tspan><tspan x="-4.191" y="89">T</tspan></text><text transform="translate(1633 1)"><tspan x="-41.074" y="17">POSLOVNO </tspan><tspan x="-45.469" y="89">SVETOVANJE</tspan></text><text transform="translate(1825 1)"><tspan x="-33.27" y="17">TRGOVIN</tspan><tspan x="-5.16" y="89">A</tspan></text><text transform="translate(1923 1)"><tspan x="-8.016" y="17">SL</tspan><tspan x="-6.031" y="89">O</tspan></text></g><path fill="#fff" d="M0 412h63v63H0z"/></svg>