<svg xmlns="http://www.w3.org/2000/svg" width="17.332" height="20"><defs><clipPath id="a"><path fill="#fff" stroke="rgba(0,0,0,0)" stroke-miterlimit="10" d="M0 0h17.332v20H0z"/></clipPath></defs><g clip-path="url(#a)" fill="#fff" stroke="rgba(0,0,0,0)" stroke-miterlimit="10"><path d="M8.659 20H.809C.245 20 0 19.755 0 19.188v-3.1a5.352 5.352 0 014.582-5.361 5.448 5.448 0 01.83-.055q3.248-.006 6.5 0a5.353 5.353 0 015.418 5.388c.006 1.062 0 2.124 0 3.186a.677.677 0 01-.758.758H8.659m7.34-1.344v-2.6a4.017 4.017 0 00-4.054-4.057q-3.279-.006-6.558 0a4.017 4.017 0 00-4.051 4.061v2.395c0 .067.006.133.009.2zM4 4.655a4.665 4.665 0 114.673 4.678 4.671 4.671 0 01-4.67-4.679M8.66 1.333A3.333 3.333 0 1012 4.668a3.34 3.34 0 00-3.34-3.335"/></g></svg>