<svg xmlns="http://www.w3.org/2000/svg" width="2241" height="313"><defs><clipPath id="a"><path transform="translate(-.286 -.286)" d="M0 0h50v50H0z"/></clipPath><clipPath id="b"><path d="M151.168 171.069a19.9 19.9 0 1019.9-19.9 19.919 19.919 0 00-19.9 19.9" transform="translate(-151.168 -151.172)"/></clipPath><clipPath id="c"><path d="M0 0h17.332v20H0z"/></clipPath><clipPath id="d"><path d="M0 0h19.805v20H0z"/></clipPath></defs><g fill="#fff"><path d="M2240.5 79.5h-1919V.5h1919v79z"/><path d="M322 1v78h1918V1H322m-1-1h1920v80H321V0z"/></g><g clip-path="url(#a)" transform="translate(.286 263.286)"><path d="M24.442 49.428a24.448 24.448 0 01-9.514-46.963 24.448 24.448 0 0119.028 45.041 24.29 24.29 0 01-9.514 1.921m0-46.708a22.272 22.272 0 00-8.667 42.783A22.272 22.272 0 0033.108 4.469a22.126 22.126 0 00-8.667-1.749"/><path d="M40.962 18.554h2.313A19.975 19.975 0 0028.752 5.559v2.234a17.8 17.8 0 0112.21 10.761m3.365 5.627l-2.169.162q.012.32.012.643a17.7 17.7 0 01-6.74 13.9l1.4 1.666a19.873 19.873 0 007.518-15.568q0-.4-.016-.8m-39.1-4.368h2.261a17.808 17.808 0 0111.05-11.541v-2.29A19.982 19.982 0 005.231 19.817m19.217 22.9a17.813 17.813 0 01-2.4-.162l.05 2.2a20.018 20.018 0 002.349.138 19.778 19.778 0 009.977-2.687l-1.238-1.795a17.617 17.617 0 01-8.738 2.308"/></g><g clip-path="url(#b)" transform="translate(4.831 268.375)"><path d="M7.234 3.185h2.133V39H7.234zM16.788-.18h2.133v40.292h-2.133zm23.684 21.269l-16.262-.037V2.614h2.133v16.31l14.134.032z"/></g><g transform="translate(2043.67 30)" clip-path="url(#c)"><path d="M8.659 20H.809C.245 20 0 19.755 0 19.188v-3.1a5.352 5.352 0 014.582-5.361 5.448 5.448 0 01.83-.055q3.248-.006 6.5 0a5.353 5.353 0 015.418 5.388c.006 1.062 0 2.124 0 3.186a.677.677 0 01-.758.758H8.659m7.34-1.344v-2.6a4.017 4.017 0 00-4.054-4.057q-3.279-.006-6.558 0a4.017 4.017 0 00-4.051 4.061v2.395c0 .067.006.133.009.2zM4 4.655a4.665 4.665 0 114.673 4.678 4.671 4.671 0 01-4.67-4.679M8.66 1.333A3.333 3.333 0 1012 4.668a3.34 3.34 0 00-3.34-3.335"/></g><g transform="translate(2003.866 30)" clip-path="url(#d)"><path d="M15 20h-.586a.444.444 0 00-.086-.036 2.138 2.138 0 01-1.751-2.394 5.813 5.813 0 01.169-.694H9.743l.079.212a2.157 2.157 0 01-1.38 2.812c-.117.035-.235.065-.353.1h-.547a.533.533 0 00-.09-.033A2.162 2.162 0 015.9 16.826c-.058-.016-.1-.027-.141-.04A2.386 2.386 0 014 14.848c-.123-.677-.19-1.365-.281-2.048l-.68-5.123-.693-5.2a1.989 1.989 0 00-.384-1.086.545.545 0 00-.47-.224c-.3.015-.6.008-.9 0a.588.588 0 01-.577-.46.59.59 0 01.321-.649C.369.041.4.02.431 0h1.407A4.514 4.514 0 012.6.4a2.37 2.37 0 01.834 1.5c.072.4.118.807.178 1.231h14.244a1.933 1.933 0 011.857 1.326 2.579 2.579 0 01.041 1.178c-.233 1.727-.459 3.456-.695 5.183a7.527 7.527 0 01-.224 1.264 2.385 2.385 0 01-2.345 1.633H5.024c.045.333.073.643.135.947a1.341 1.341 0 00.2.48 1.253 1.253 0 001.1.548h11.543a1.289 1.289 0 01.329.026.581.581 0 01.415.61.592.592 0 01-.6.531c-.43.009-.859 0-1.289 0-.067 0-.134.006-.214.01.037.1.066.167.092.24a2.155 2.155 0 01-1.38 2.793c-.116.036-.234.067-.35.1M3.78 4.319c.007.09.009.167.02.243.138 1.025.281 2.049.41 3.074.02.163.061.216.233.215 1.334-.008 2.669 0 4 0h.2l-.234-3.532zm.62 4.708c.01.1.014.177.025.254.137 1.024.28 2.047.409 3.072.02.161.073.2.227.2 1.229-.006 2.459 0 3.688 0 .062 0 .125-.007.206-.011l-.235-3.51zm10.126-4.708l-.234 3.516h3.987l.281-2.093c.021-.155.039-.31.063-.464a.77.77 0 00-.821-.97h-3.1c-.051 0-.1.007-.171.012m3.593 4.709h-3.912l-.233 3.5a.9.9 0 00.1.014c.852 0 1.7.008 2.556 0a1.222 1.222 0 001.143-1c.04-.23.067-.463.1-.695.081-.6.16-1.207.241-1.823m-8.3-1.194h3.3l.233-3.516H9.586l.234 3.516m.08 1.2l.234 3.5H12.8l.233-3.5zm-2.1 7.835a.981.981 0 000 1.961.981.981 0 100-1.961m6.905 0a.981.981 0 00-.979.979.985.985 0 101.969-.011.981.981 0 00-.99-.968"/></g><g transform="translate(424 -1)"><rect width="20" height="2" rx="1" transform="translate(1657 31)"/><rect width="20" height="2" rx="1" transform="translate(1657 40)"/><rect width="20" height="2" rx="1" transform="translate(1657 49)"/></g><text transform="translate(1441 31)" font-size="16" font-family="SegoeUI, Segoe UI"><tspan x="-6.031" y="17">O </tspan><tspan x="-15.395" y="89">NAS</tspan></text><text transform="translate(1512 31)" font-size="16" font-family="SegoeUI, Segoe UI"><tspan x="-39.668" y="17">TRANSPOR</tspan><tspan x="-4.191" y="89">T</tspan></text><text transform="translate(1621 31)" font-size="16" font-family="SegoeUI, Segoe UI"><tspan x="-41.074" y="17">POSLOVNO </tspan><tspan x="-45.469" y="89">SVETOVANJE</tspan></text><text transform="translate(1813 31)" font-size="16" font-family="SegoeUI, Segoe UI"><tspan x="-33.27" y="17">TRGOVIN</tspan><tspan x="-5.16" y="89">A</tspan></text><text transform="translate(1911 31)" font-size="16" font-family="SegoeUI, Segoe UI"><tspan x="-8.016" y="17">SL</tspan><tspan x="-6.031" y="89">O</tspan></text><path d="M1939.682 39.61l3.535 3.535m3.855-3.535l-3.536 3.536" fill="none" stroke="#000" stroke-linecap="round" stroke-width="1.5"/></svg>