<svg xmlns="http://www.w3.org/2000/svg" width="70" height="70"><defs><clipPath id="a"><path fill="#fff" stroke="rgba(0,0,0,0)" stroke-miterlimit="10" d="M0 0h70v70H0z"/></clipPath><clipPath id="b"><path d="M151.168 179.664a28.492 28.492 0 1028.491-28.492 28.524 28.524 0 00-28.491 28.492" transform="translate(-151.168 -151.172)" fill="#fff" stroke="rgba(0,0,0,0)" stroke-miterlimit="10"/></clipPath></defs><g clip-path="url(#a)" fill="#fff" stroke="rgba(0,0,0,0)" stroke-miterlimit="10"><path d="M35 70A35.009 35.009 0 0121.376 2.751a35.01 35.01 0 0127.248 64.5A34.782 34.782 0 0135 70m0-66.884a31.893 31.893 0 00-12.41 61.263A31.893 31.893 0 0047.41 5.621 31.683 31.683 0 0035 3.116"/><path d="M58.653 25.79h3.313a28.6 28.6 0 00-20.8-18.608v3.2a25.491 25.491 0 0117.481 15.413m4.818 8.058l-3.106.232q.016.458.017.92a25.35 25.35 0 01-9.651 19.906l2 2.386a28.457 28.457 0 0010.766-22.292q0-.579-.023-1.152m-55.99-6.255h3.241a25.5 25.5 0 0115.824-16.533v-3.28A28.613 28.613 0 007.481 27.592m27.518 32.79a25.5 25.5 0 01-3.435-.232l.072 3.146a28.663 28.663 0 003.364.2 28.321 28.321 0 0014.286-3.847l-1.773-2.57A25.227 25.227 0 0135 60.379"/></g><g clip-path="url(#b)" fill="#fff" stroke="rgba(0,0,0,0)" stroke-miterlimit="10" transform="translate(6.508 6.508)"><path d="M10.359 4.561h3.055v51.286h-3.055zM24.04-.258h3.055v57.696H24.04zm33.915 30.457l-23.287-.053v-26.4h3.055v23.356l20.24.046z"/></g></svg>