<svg xmlns="http://www.w3.org/2000/svg" width="544.905" height="95.356"><defs><clipPath id="a"><path fill="none" d="M0 0h544.905v95.356H0z"/></clipPath></defs><g transform="translate(0 -.001)" clip-path="url(#a)"><path d="M500.989 74.168a1.5 1.5 0 01-1.5-1.5V26.097a1.5 1.5 0 011.5-1.5h38.374a1.5 1.5 0 011.268.7l4.041 6.366a1.5 1.5 0 01-1.268 2.3h-19.7V49.57l10.525 3.082a1.5 1.5 0 011.082 1.439v5.089a1.5 1.5 0 01-3 0v-3.962l-10.535-3.08a1.5 1.5 0 01-1.079-1.439V32.46a1.5 1.5 0 011.5-1.5h18.47l-2.13-3.359h-36.046v45.065a1.5 1.5 0 01-1.5 1.5m28.836-52.502a1.6 1.6 0 01-.439-.063l-26.9-8.175v6.735a1.5 1.5 0 01-3 0v-8.76a1.509 1.509 0 011.939-1.442l28.844 8.763a1.5 1.5 0 01-.439 2.941M256.719 72.667h231.093a3 3 0 003-3V4.5a3 3 0 00-3-3H256.719a3 3 0 00-3 3v65.169a3 3 0 003 3"/><path d="M487.812 74.168H256.716a4.5 4.5 0 01-4.5-4.5V4.499a4.5 4.5 0 014.5-4.5h231.1a4.5 4.5 0 014.5 4.5v65.169a4.5 4.5 0 01-4.5 4.5m-231.1-71.169a1.5 1.5 0 00-1.5 1.493v65.176a1.5 1.5 0 001.5 1.5h231.1a1.5 1.5 0 001.5-1.5V4.499a1.5 1.5 0 00-1.504-1.5zM4.502 72.667h231.1a3 3 0 003-3V4.5a3 3 0 00-3-3H4.502a3 3 0 00-3 3v65.169a3 3 0 003 3"/><path d="M235.593 74.168H4.5a4.5 4.5 0 01-4.5-4.5V4.499a4.5 4.5 0 014.5-4.5h231.093a4.5 4.5 0 014.5 4.5v65.169a4.5 4.5 0 01-4.5 4.5M4.5 2.999a1.5 1.5 0 00-1.5 1.5v65.169a1.5 1.5 0 001.5 1.5h231.093a1.5 1.5 0 001.5-1.5V4.499a1.5 1.5 0 00-1.5-1.5zm538.903 85.256h-6.97a1.5 1.5 0 110-3h5.468V32.463a1.5 1.5 0 013 0v54.292a1.5 1.5 0 01-1.5 1.5m-20.797 7.103a8.606 8.606 0 118.607-8.607 8.617 8.617 0 01-8.607 8.607m0-14.207a5.6 5.6 0 105.6 5.6 5.606 5.606 0 00-5.6-5.6m-48.931 14.207a8.606 8.606 0 118.607-8.607 8.617 8.617 0 01-8.607 8.607m0-14.207a5.6 5.6 0 105.6 5.6 5.606 5.606 0 00-5.6-5.6m-20.978 14.207a8.606 8.606 0 118.607-8.607 8.617 8.617 0 01-8.607 8.607m0-14.207a5.6 5.6 0 105.6 5.6 5.606 5.606 0 00-5.6-5.6M352.36 95.358a8.606 8.606 0 118.607-8.607 8.617 8.617 0 01-8.607 8.607m0-14.207a5.6 5.6 0 105.6 5.6 5.606 5.606 0 00-5.6-5.6m-20.93 14.207a8.606 8.606 0 118.607-8.607 8.617 8.617 0 01-8.607 8.607m0-14.207a5.6 5.6 0 105.6 5.6 5.606 5.606 0 00-5.6-5.6m-20.928 14.207a8.606 8.606 0 118.6-8.607 8.615 8.615 0 01-8.6 8.607m0-14.207a5.6 5.6 0 105.6 5.6 5.606 5.606 0 00-5.6-5.6m198.28 7.102h-21.491a1.5 1.5 0 010-3h21.49a1.5 1.5 0 010 3m-69.783 0h-72.809a1.5 1.5 0 010-3h72.809a1.5 1.5 0 110 3m-217.537 7.105a8.606 8.606 0 118.6-8.607 8.618 8.618 0 01-8.6 8.607m0-14.207a5.6 5.6 0 105.6 5.6 5.608 5.608 0 00-5.6-5.6m-20.985 14.207a8.606 8.606 0 118.607-8.607 8.615 8.615 0 01-8.607 8.607m0-14.207a5.6 5.6 0 105.6 5.6 5.6 5.6 0 00-5.6-5.6M100.148 95.358a8.606 8.606 0 118.6-8.607 8.618 8.618 0 01-8.6 8.607m0-14.207a5.6 5.6 0 105.6 5.6 5.608 5.608 0 00-5.6-5.6M79.214 95.358a8.606 8.606 0 118.607-8.607 8.617 8.617 0 01-8.607 8.607m0-14.207a5.6 5.6 0 105.6 5.6 5.606 5.606 0 00-5.6-5.6M58.283 95.358a8.606 8.606 0 118.607-8.607 8.617 8.617 0 01-8.607 8.607m0-14.207a5.6 5.6 0 105.6 5.6 5.606 5.606 0 00-5.6-5.6m128.499 7.102h-72.809a1.5 1.5 0 110-3h72.809a1.5 1.5 0 110 3"/></g><text transform="translate(99 12)" fill="#fff" font-size="36" font-family="SegoeUI, Segoe UI" letter-spacing="-.02em"><tspan x="0" y="39">do</tspan></text><text transform="translate(339 12)" fill="#fff" font-size="36" font-family="SegoeUI, Segoe UI" letter-spacing="-.02em"><tspan x="0" y="39">24 T</tspan></text></svg>