<svg xmlns="http://www.w3.org/2000/svg" xmlns:xlink="http://www.w3.org/1999/xlink" width="70" height="70" viewBox="0 0 70 70"><defs><clipPath id="a"><rect width="70" height="70" fill="#fff" stroke="rgba(0,0,0,0)" stroke-miterlimit="10" stroke-width="1"/></clipPath><clipPath id="b"><path d="M151.168,179.664a28.492,28.492,0,1,0,28.491-28.492,28.524,28.524,0,0,0-28.491,28.492" transform="translate(-151.168 -151.172)" fill="#fff" stroke="rgba(0,0,0,0)" stroke-miterlimit="10" stroke-width="1"/></clipPath></defs><g transform="translate(0 0)" clip-path="url(#a)"><path d="M35,70A35.009,35.009,0,0,1,21.376,2.751a35.009,35.009,0,0,1,27.248,64.5A34.782,34.782,0,0,1,35,70M35,3.116A31.893,31.893,0,0,0,22.59,64.379,31.893,31.893,0,0,0,47.41,5.621,31.683,31.683,0,0,0,35,3.116" transform="translate(0 0)" fill="#fff" stroke="rgba(0,0,0,0)" stroke-miterlimit="10" stroke-width="1"/><path d="M225.034,185.425l3.313,0a28.6,28.6,0,0,0-20.8-18.608l0,3.2a25.491,25.491,0,0,1,17.481,15.413m4.818,8.058-3.106.232q.016.458.017.92a25.35,25.35,0,0,1-9.651,19.906l2,2.386a28.457,28.457,0,0,0,10.766-22.292q0-.579-.023-1.152m-55.99-6.255H177.1A25.5,25.5,0,0,1,192.924,170.7v-3.28a28.613,28.613,0,0,0-19.062,19.807m27.518,32.79a25.5,25.5,0,0,1-3.435-.232l.072,3.146a28.663,28.663,0,0,0,3.364.2,28.321,28.321,0,0,0,14.286-3.847l-1.773-2.57a25.227,25.227,0,0,1-12.513,3.3" transform="translate(-166.381 -159.635)" fill="#fff" stroke="rgba(0,0,0,0)" stroke-miterlimit="10" stroke-width="1"/></g><g transform="translate(6.508 6.508)"><g clip-path="url(#b)"><rect width="3.055" height="51.286" transform="translate(10.359 4.561)" fill="#fff" stroke="rgba(0,0,0,0)" stroke-miterlimit="10" stroke-width="1"/><rect width="3.055" height="57.696" transform="translate(24.04 -0.258)" fill="#fff" stroke="rgba(0,0,0,0)" stroke-miterlimit="10" stroke-width="1"/><path d="M980.212,264.627l-23.287-.053v-26.4h3.055v23.356l20.24.046Z" transform="translate(-922.257 -234.428)" fill="#fff" stroke="rgba(0,0,0,0)" stroke-miterlimit="10" stroke-width="1"/></g></g></svg>