<svg xmlns="http://www.w3.org/2000/svg" xmlns:xlink="http://www.w3.org/1999/xlink" width="2113" height="475" viewBox="0 0 2113 475"><defs><clipPath id="a"><rect width="70" height="70" fill="#fff" stroke="rgba(0,0,0,0)" stroke-miterlimit="10" stroke-width="1"/></clipPath><clipPath id="b"><path d="M151.168,179.664a28.492,28.492,0,1,0,28.491-28.492,28.524,28.524,0,0,0-28.491,28.492" transform="translate(-151.168 -151.172)" fill="#fff" stroke="rgba(0,0,0,0)" stroke-miterlimit="10" stroke-width="1"/></clipPath><clipPath id="c"><rect width="19.805" height="20" fill="#fff" stroke="rgba(0,0,0,0)" stroke-miterlimit="10" stroke-width="1"/></clipPath><clipPath id="d"><rect width="17.332" height="20" fill="#fff" stroke="rgba(0,0,0,0)" stroke-miterlimit="10" stroke-width="1"/></clipPath></defs><line x2="1560" transform="translate(553 50)" fill="none" stroke="#fff" stroke-width="1"/><g transform="translate(473 15)"><g transform="translate(0 0)" clip-path="url(#a)"><path d="M35,70A35.009,35.009,0,0,1,21.376,2.751a35.009,35.009,0,0,1,27.248,64.5A34.782,34.782,0,0,1,35,70M35,3.116A31.893,31.893,0,0,0,22.59,64.379,31.893,31.893,0,0,0,47.41,5.621,31.683,31.683,0,0,0,35,3.116" transform="translate(0 0)" fill="#fff" stroke="rgba(0,0,0,0)" stroke-miterlimit="10" stroke-width="1"/><path d="M225.034,185.425l3.313,0a28.6,28.6,0,0,0-20.8-18.608l0,3.2a25.491,25.491,0,0,1,17.481,15.413m4.818,8.058-3.106.232q.016.458.017.92a25.35,25.35,0,0,1-9.651,19.906l2,2.386a28.457,28.457,0,0,0,10.766-22.292q0-.579-.023-1.152m-55.99-6.255H177.1A25.5,25.5,0,0,1,192.924,170.7v-3.28a28.613,28.613,0,0,0-19.062,19.807m27.518,32.79a25.5,25.5,0,0,1-3.435-.232l.072,3.146a28.663,28.663,0,0,0,3.364.2,28.321,28.321,0,0,0,14.286-3.847l-1.773-2.57a25.227,25.227,0,0,1-12.513,3.3" transform="translate(-166.381 -159.635)" fill="#fff" stroke="rgba(0,0,0,0)" stroke-miterlimit="10" stroke-width="1"/></g><g transform="translate(6.508 6.508)"><g clip-path="url(#b)"><rect width="3.055" height="51.286" transform="translate(10.359 4.561)" fill="#fff" stroke="rgba(0,0,0,0)" stroke-miterlimit="10" stroke-width="1"/><rect width="3.055" height="57.696" transform="translate(24.04 -0.258)" fill="#fff" stroke="rgba(0,0,0,0)" stroke-miterlimit="10" stroke-width="1"/><path d="M980.212,264.627l-23.287-.053v-26.4h3.055v23.356l20.24.046Z" transform="translate(-922.257 -234.428)" fill="#fff" stroke="rgba(0,0,0,0)" stroke-miterlimit="10" stroke-width="1"/></g></g></g><g transform="translate(2093)"><rect width="20" height="2" rx="1" fill="#fff"/><rect width="20" height="2" rx="1" transform="translate(0 9)" fill="#fff"/><rect width="20" height="2" rx="1" transform="translate(0 18)" fill="#fff"/></g><g transform="translate(2015.863)"><g clip-path="url(#c)"><path d="M15,20h-.586a.444.444,0,0,0-.086-.036,2.138,2.138,0,0,1-1.751-2.394,5.813,5.813,0,0,1,.169-.694H9.743l.079.212A2.157,2.157,0,0,1,8.442,19.9c-.117.035-.235.065-.353.1H7.542a.533.533,0,0,0-.09-.033A2.162,2.162,0,0,1,5.9,16.826c-.058-.016-.1-.027-.141-.04A2.386,2.386,0,0,1,4,14.848c-.123-.677-.19-1.365-.281-2.048q-.34-2.561-.68-5.123-.346-2.6-.693-5.2a1.989,1.989,0,0,0-.384-1.086.545.545,0,0,0-.47-.224c-.3.015-.6.008-.9,0A.588.588,0,0,1,.015.707.59.59,0,0,1,.336.058C.369.041.4.02.431,0H1.838A4.514,4.514,0,0,1,2.6.4a2.37,2.37,0,0,1,.834,1.5c.072.4.118.807.178,1.231h14.01c.078,0,.156,0,.234,0a1.933,1.933,0,0,1,1.857,1.326,2.579,2.579,0,0,1,.041,1.178c-.233,1.727-.459,3.456-.695,5.183a7.527,7.527,0,0,1-.224,1.264,2.385,2.385,0,0,1-2.345,1.633q-5.6,0-11.192,0H5.024c.045.333.073.643.135.947a1.341,1.341,0,0,0,.2.48,1.253,1.253,0,0,0,1.1.548q5.772,0,11.543,0a1.289,1.289,0,0,1,.329.026.581.581,0,0,1,.415.61.592.592,0,0,1-.6.531c-.43.009-.859,0-1.289,0-.067,0-.134.006-.214.01.037.1.066.167.092.24A2.155,2.155,0,0,1,15.355,19.9c-.116.036-.234.067-.35.1M3.78,4.319c.007.09.009.167.02.243.138,1.025.281,2.049.41,3.074.02.163.061.216.233.215,1.334-.008,2.669,0,4,0h.2L8.409,4.319ZM4.4,9.027c.01.1.014.177.025.254.137,1.024.28,2.047.409,3.072.02.161.073.2.227.2,1.229-.006,2.459,0,3.688,0,.062,0,.125-.007.206-.011l-.235-3.51ZM14.526,4.319l-.234,3.516h3.987l.281-2.093c.021-.155.039-.31.063-.464a.77.77,0,0,0-.821-.97c-1.035,0-2.069,0-3.1,0-.051,0-.1.007-.171.012m3.593,4.709H14.212l-.233,3.5a.9.9,0,0,0,.1.014c.852,0,1.7.008,2.556,0a1.222,1.222,0,0,0,1.143-1c.04-.23.067-.463.1-.695.081-.6.16-1.207.241-1.823m-8.3-1.194h3.3l.233-3.516H9.586l.234,3.516m.08,1.2.234,3.5H12.8l.233-3.5ZM7.8,16.866a.981.981,0,0,0,0,1.961.981.981,0,1,0,0-1.961m6.905,0a.981.981,0,0,0-.979.979.985.985,0,1,0,1.969-.011.981.981,0,0,0-.99-.968" transform="translate(0)" fill="#fff" stroke="rgba(0,0,0,0)" stroke-miterlimit="10" stroke-width="1"/></g></g><g transform="translate(2055.668)"><g clip-path="url(#d)"><path d="M8.66,201.391H.81c-.564,0-.809-.245-.809-.812q0-1.552,0-3.1a5.352,5.352,0,0,1,4.582-5.361,5.448,5.448,0,0,1,.83-.055q3.248-.006,6.5,0a5.353,5.353,0,0,1,5.418,5.388c.006,1.062,0,2.124,0,3.186a.677.677,0,0,1-.758.758H8.66M16,200.051c0-.882,0-1.742,0-2.6a4.017,4.017,0,0,0-4.054-4.057q-3.279-.006-6.558,0a4.017,4.017,0,0,0-4.051,4.061c0,.8,0,1.6,0,2.395,0,.067.006.133.009.2Z" transform="translate(-0.001 -181.391)" fill="#fff" stroke="rgba(0,0,0,0)" stroke-miterlimit="10" stroke-width="1"/><path d="M72.027,4.656A4.665,4.665,0,1,1,76.7,9.334a4.671,4.671,0,0,1-4.67-4.679m4.657-3.321a3.333,3.333,0,1,0,3.34,3.335,3.34,3.34,0,0,0-3.34-3.335" transform="translate(-68.027 -0.001)" fill="#fff" stroke="rgba(0,0,0,0)" stroke-miterlimit="10" stroke-width="1"/></g></g><g transform="translate(-95.901 3148.655) rotate(-45)"><line y2="5" transform="translate(3667.5 -771.781)" fill="none" stroke="#fff" stroke-linecap="round" stroke-width="1.5"/><line y2="5" transform="translate(3672.725 -766.555) rotate(90)" fill="none" stroke="#fff" stroke-linecap="round" stroke-width="1.5"/></g><g transform="translate(333 -30)"><g transform="translate(1120 31)"><text fill="#fff" font-size="16" font-family="SegoeUI, Segoe UI"><tspan x="-6.031" y="17">O </tspan><tspan x="-15.395" y="89">NAS</tspan></text><text transform="translate(71)" fill="#fff" font-size="16" font-family="SegoeUI, Segoe UI"><tspan x="-39.668" y="17">TRANSPOR</tspan><tspan x="-4.191" y="89">T</tspan></text><text transform="translate(180)" fill="#fff" font-size="16" font-family="SegoeUI, Segoe UI"><tspan x="-41.074" y="17">POSLOVNO </tspan><tspan x="-45.469" y="89">SVETOVANJE</tspan></text><text transform="translate(372)" fill="#fff" font-size="16" font-family="SegoeUI, Segoe UI"><tspan x="-33.27" y="17">TRGOVIN</tspan><tspan x="-5.16" y="89">A</tspan></text><text transform="translate(470)" fill="#fff" font-size="16" font-family="SegoeUI, Segoe UI"><tspan x="-8.016" y="17">SL</tspan><tspan x="-6.031" y="89">O</tspan></text></g></g><rect width="63" height="63" transform="translate(0 412)" fill="#fff"/></svg>