<svg xmlns="http://www.w3.org/2000/svg" xmlns:xlink="http://www.w3.org/1999/xlink" width="17.332" height="20" viewBox="0 0 17.332 20"><defs><clipPath id="a"><rect width="17.332" height="20" fill="#fff" stroke="rgba(0,0,0,0)" stroke-miterlimit="10" stroke-width="1"/></clipPath></defs><g clip-path="url(#a)"><path d="M8.66,201.391H.81c-.564,0-.809-.245-.809-.812q0-1.552,0-3.1a5.352,5.352,0,0,1,4.582-5.361,5.448,5.448,0,0,1,.83-.055q3.248-.006,6.5,0a5.353,5.353,0,0,1,5.418,5.388c.006,1.062,0,2.124,0,3.186a.677.677,0,0,1-.758.758H8.66M16,200.051c0-.882,0-1.742,0-2.6a4.017,4.017,0,0,0-4.054-4.057q-3.279-.006-6.558,0a4.017,4.017,0,0,0-4.051,4.061c0,.8,0,1.6,0,2.395,0,.067.006.133.009.2Z" transform="translate(-0.001 -181.391)" fill="#fff" stroke="rgba(0,0,0,0)" stroke-miterlimit="10" stroke-width="1"/><path d="M72.027,4.656A4.665,4.665,0,1,1,76.7,9.334a4.671,4.671,0,0,1-4.67-4.679m4.657-3.321a3.333,3.333,0,1,0,3.34,3.335,3.34,3.34,0,0,0-3.34-3.335" transform="translate(-68.027 -0.001)" fill="#fff" stroke="rgba(0,0,0,0)" stroke-miterlimit="10" stroke-width="1"/></g></svg>