<svg xmlns="http://www.w3.org/2000/svg" xmlns:xlink="http://www.w3.org/1999/xlink" width="544.905" height="95.356" viewBox="0 0 544.905 95.356"><defs><clipPath id="a"><rect width="544.905" height="95.356" fill="none"/></clipPath></defs><g transform="translate(-687.547 -1734.728)"><g transform="translate(687.547 1734.727)"><g transform="translate(0 0)" clip-path="url(#a)"><path d="M167.76,57.76a1.5,1.5,0,0,1-1.5-1.5V9.689a1.5,1.5,0,0,1,1.5-1.5h38.374a1.5,1.5,0,0,1,1.268.7l4.041,6.366a1.5,1.5,0,0,1-1.268,2.3h-19.7V33.162L201,36.244a1.5,1.5,0,0,1,1.082,1.439v5.089a1.5,1.5,0,0,1-3,0V38.81L188.547,35.73a1.5,1.5,0,0,1-1.079-1.439V16.052a1.5,1.5,0,0,1,1.5-1.5h18.47l-2.13-3.359H169.262V56.258a1.5,1.5,0,0,1-1.5,1.5" transform="translate(333.229 16.408)"/><path d="M196.6,15.063a1.6,1.6,0,0,1-.439-.063l-26.9-8.175V13.56a1.5,1.5,0,0,1-3,0V4.8A1.509,1.509,0,0,1,168.2,3.358l28.844,8.763a1.5,1.5,0,0,1-.439,2.941" transform="translate(333.227 6.601)"/><path d="M87.453,71.667H318.546a3,3,0,0,0,3-3V3.5a3,3,0,0,0-3-3H87.453a3,3,0,0,0-3,3V68.669a3,3,0,0,0,3,3" transform="translate(169.266 1)"/><path d="M319.548,74.169H88.452a4.5,4.5,0,0,1-4.5-4.5V4.5a4.5,4.5,0,0,1,4.5-4.5h231.1a4.5,4.5,0,0,1,4.5,4.5V69.669a4.5,4.5,0,0,1-4.5,4.5M88.452,3a1.5,1.5,0,0,0-1.5,1.493V69.669a1.5,1.5,0,0,0,1.5,1.5h231.1a1.5,1.5,0,0,0,1.5-1.5V4.5A1.5,1.5,0,0,0,319.548,3Z" transform="translate(168.264 -0.001)"/><path d="M3.5,71.667h231.1a3,3,0,0,0,3-3V3.5a3,3,0,0,0-3-3H3.5a3,3,0,0,0-3,3V68.669a3,3,0,0,0,3,3" transform="translate(1.002 1)"/><path d="M235.593,74.169H4.5a4.5,4.5,0,0,1-4.5-4.5V4.5A4.5,4.5,0,0,1,4.5,0H235.593a4.5,4.5,0,0,1,4.5,4.5V69.669a4.5,4.5,0,0,1-4.5,4.5M4.5,3A1.5,1.5,0,0,0,3,4.5V69.669a1.5,1.5,0,0,0,1.5,1.5H235.593a1.5,1.5,0,0,0,1.5-1.5V4.5A1.5,1.5,0,0,0,235.593,3Z" transform="translate(0 -0.001)"/><path d="M186.528,67.6h-6.97a1.5,1.5,0,1,1,0-3h5.468V11.808a1.5,1.5,0,0,1,3,0V66.1a1.5,1.5,0,0,1-1.5,1.5" transform="translate(356.875 20.655)"/><path d="M179.693,43.223a8.606,8.606,0,1,1,8.607-8.607,8.617,8.617,0,0,1-8.607,8.607m0-14.207a5.6,5.6,0,1,0,5.6,5.6,5.606,5.606,0,0,0-5.6-5.6" transform="translate(342.911 52.135)"/><path d="M163.406,43.223a8.606,8.606,0,1,1,8.607-8.607,8.617,8.617,0,0,1-8.607,8.607m0-14.207a5.6,5.6,0,1,0,5.6,5.6,5.606,5.606,0,0,0-5.6-5.6" transform="translate(310.267 52.135)"/><path d="M156.423,43.223a8.606,8.606,0,1,1,8.607-8.607,8.617,8.617,0,0,1-8.607,8.607m0-14.207a5.6,5.6,0,1,0,5.6,5.6,5.606,5.606,0,0,0-5.6-5.6" transform="translate(296.272 52.135)"/><path d="M123.026,43.223a8.606,8.606,0,1,1,8.607-8.607,8.617,8.617,0,0,1-8.607,8.607m0-14.207a5.6,5.6,0,1,0,5.6,5.6,5.606,5.606,0,0,0-5.6-5.6" transform="translate(229.334 52.135)"/><path d="M116.059,43.223a8.606,8.606,0,1,1,8.607-8.607,8.617,8.617,0,0,1-8.607,8.607m0-14.207a5.6,5.6,0,1,0,5.6,5.6,5.606,5.606,0,0,0-5.6-5.6" transform="translate(215.371 52.135)"/><path d="M109.093,43.223a8.606,8.606,0,1,1,8.6-8.607,8.615,8.615,0,0,1-8.6,8.607m0-14.207a5.6,5.6,0,1,0,5.6,5.6,5.606,5.606,0,0,0-5.6-5.6" transform="translate(201.409 52.135)"/><path d="M184.691,31.38H163.2a1.5,1.5,0,0,1,0-3h21.49a1.5,1.5,0,0,1,0,3" transform="translate(324.091 56.873)"/><path d="M195.7,31.38H122.891a1.5,1.5,0,0,1,0-3H195.7a1.5,1.5,0,1,1,0,3" transform="translate(243.298 56.873)"/><path d="M79.457,43.223a8.606,8.606,0,1,1,8.6-8.607,8.618,8.618,0,0,1-8.6,8.607m0-14.207a5.6,5.6,0,1,0,5.6,5.6,5.608,5.608,0,0,0-5.6-5.6" transform="translate(142.004 52.135)"/><path d="M72.468,43.223a8.606,8.606,0,1,1,8.607-8.607,8.615,8.615,0,0,1-8.607,8.607m0-14.207a5.6,5.6,0,1,0,5.6,5.6,5.6,5.6,0,0,0-5.6-5.6" transform="translate(128.008 52.135)"/><path d="M39.077,43.223a8.606,8.606,0,1,1,8.6-8.607,8.618,8.618,0,0,1-8.6,8.607m0-14.207a5.6,5.6,0,1,0,5.6,5.6,5.608,5.608,0,0,0-5.6-5.6" transform="translate(61.071 52.135)"/><path d="M32.107,43.223a8.606,8.606,0,1,1,8.607-8.607,8.617,8.617,0,0,1-8.607,8.607m0-14.207a5.6,5.6,0,1,0,5.6,5.6,5.606,5.606,0,0,0-5.6-5.6" transform="translate(47.107 52.135)"/><path d="M25.14,43.223a8.606,8.606,0,1,1,8.607-8.607,8.617,8.617,0,0,1-8.607,8.607m0-14.207a5.6,5.6,0,1,0,5.6,5.6,5.606,5.606,0,0,0-5.6-5.6" transform="translate(33.143 52.135)"/><path d="M111.748,31.38H38.939a1.5,1.5,0,1,1,0-3h72.809a1.5,1.5,0,1,1,0,3" transform="translate(75.034 56.873)"/></g></g><text transform="translate(786.547 1746.728)" fill="#fff" font-size="36" font-family="SegoeUI, Segoe UI" letter-spacing="-0.02em"><tspan x="0" y="39">do</tspan></text><text transform="translate(1026.547 1746.728)" fill="#fff" font-size="36" font-family="SegoeUI, Segoe UI" letter-spacing="-0.02em"><tspan x="0" y="39">24 T</tspan></text></g></svg>