<svg xmlns="http://www.w3.org/2000/svg" xmlns:xlink="http://www.w3.org/1999/xlink" width="544.905" height="241.355" viewBox="0 0 544.905 241.355">
  <defs>
    <clipPath id="clip-path">
      <rect id="Rectangle_990" data-name="Rectangle 990" width="544.905" height="95.356" fill="none"/>
    </clipPath>
  </defs>
  <g id="trucks_4" transform="translate(-840 -3878)">
    <g id="Group_2911" data-name="Group 2911" transform="translate(152.453 2143.272)">
      <g id="Group_2900" data-name="Group 2900" transform="translate(687.547 1734.727)">
        <g id="Group_2899" data-name="Group 2899" transform="translate(0 0)" clip-path="url(#clip-path)">
          <path id="Path_2125" data-name="Path 2125" d="M167.76,57.76a1.5,1.5,0,0,1-1.5-1.5V9.689a1.5,1.5,0,0,1,1.5-1.5h38.374a1.5,1.5,0,0,1,1.268.7l4.041,6.366a1.5,1.5,0,0,1-1.268,2.3h-19.7V33.162L201,36.244a1.5,1.5,0,0,1,1.082,1.439v5.089a1.5,1.5,0,0,1-3,0V38.81L188.547,35.73a1.5,1.5,0,0,1-1.079-1.439V16.052a1.5,1.5,0,0,1,1.5-1.5h18.47l-2.13-3.359H169.262V56.258a1.5,1.5,0,0,1-1.5,1.5" transform="translate(333.229 16.408)"/>
          <path id="Path_2126" data-name="Path 2126" d="M196.6,15.063a1.6,1.6,0,0,1-.439-.063l-26.9-8.175V13.56a1.5,1.5,0,0,1-3,0V4.8A1.509,1.509,0,0,1,168.2,3.358l28.844,8.763a1.5,1.5,0,0,1-.439,2.941" transform="translate(333.227 6.601)"/>
          <path id="Path_2127" data-name="Path 2127" d="M87.453,71.667H318.546a3,3,0,0,0,3-3V3.5a3,3,0,0,0-3-3H87.453a3,3,0,0,0-3,3V68.669a3,3,0,0,0,3,3" transform="translate(169.266 1)"/>
          <path id="Path_2128" data-name="Path 2128" d="M319.548,74.169H88.452a4.5,4.5,0,0,1-4.5-4.5V4.5a4.5,4.5,0,0,1,4.5-4.5h231.1a4.5,4.5,0,0,1,4.5,4.5V69.669a4.5,4.5,0,0,1-4.5,4.5M88.452,3a1.5,1.5,0,0,0-1.5,1.493V69.669a1.5,1.5,0,0,0,1.5,1.5h231.1a1.5,1.5,0,0,0,1.5-1.5V4.5A1.5,1.5,0,0,0,319.548,3Z" transform="translate(168.264 -0.001)"/>
          <path id="Path_2129" data-name="Path 2129" d="M3.5,71.667h231.1a3,3,0,0,0,3-3V3.5a3,3,0,0,0-3-3H3.5a3,3,0,0,0-3,3V68.669a3,3,0,0,0,3,3" transform="translate(1.002 1)"/>
          <path id="Path_2130" data-name="Path 2130" d="M235.593,74.169H4.5a4.5,4.5,0,0,1-4.5-4.5V4.5A4.5,4.5,0,0,1,4.5,0H235.593a4.5,4.5,0,0,1,4.5,4.5V69.669a4.5,4.5,0,0,1-4.5,4.5M4.5,3A1.5,1.5,0,0,0,3,4.5V69.669a1.5,1.5,0,0,0,1.5,1.5H235.593a1.5,1.5,0,0,0,1.5-1.5V4.5A1.5,1.5,0,0,0,235.593,3Z" transform="translate(0 -0.001)"/>
          <path id="Path_2131" data-name="Path 2131" d="M186.528,67.6h-6.97a1.5,1.5,0,1,1,0-3h5.468V11.808a1.5,1.5,0,0,1,3,0V66.1a1.5,1.5,0,0,1-1.5,1.5" transform="translate(356.875 20.655)"/>
          <path id="Path_2132" data-name="Path 2132" d="M179.693,43.223a8.606,8.606,0,1,1,8.607-8.607,8.617,8.617,0,0,1-8.607,8.607m0-14.207a5.6,5.6,0,1,0,5.6,5.6,5.606,5.606,0,0,0-5.6-5.6" transform="translate(342.911 52.135)"/>
          <path id="Path_2133" data-name="Path 2133" d="M163.406,43.223a8.606,8.606,0,1,1,8.607-8.607,8.617,8.617,0,0,1-8.607,8.607m0-14.207a5.6,5.6,0,1,0,5.6,5.6,5.606,5.606,0,0,0-5.6-5.6" transform="translate(310.267 52.135)"/>
          <path id="Path_2134" data-name="Path 2134" d="M156.423,43.223a8.606,8.606,0,1,1,8.607-8.607,8.617,8.617,0,0,1-8.607,8.607m0-14.207a5.6,5.6,0,1,0,5.6,5.6,5.606,5.606,0,0,0-5.6-5.6" transform="translate(296.272 52.135)"/>
          <path id="Path_2135" data-name="Path 2135" d="M123.026,43.223a8.606,8.606,0,1,1,8.607-8.607,8.617,8.617,0,0,1-8.607,8.607m0-14.207a5.6,5.6,0,1,0,5.6,5.6,5.606,5.606,0,0,0-5.6-5.6" transform="translate(229.334 52.135)"/>
          <path id="Path_2136" data-name="Path 2136" d="M116.059,43.223a8.606,8.606,0,1,1,8.607-8.607,8.617,8.617,0,0,1-8.607,8.607m0-14.207a5.6,5.6,0,1,0,5.6,5.6,5.606,5.606,0,0,0-5.6-5.6" transform="translate(215.371 52.135)"/>
          <path id="Path_2137" data-name="Path 2137" d="M109.093,43.223a8.606,8.606,0,1,1,8.6-8.607,8.615,8.615,0,0,1-8.6,8.607m0-14.207a5.6,5.6,0,1,0,5.6,5.6,5.606,5.606,0,0,0-5.6-5.6" transform="translate(201.409 52.135)"/>
          <path id="Path_2138" data-name="Path 2138" d="M184.691,31.38H163.2a1.5,1.5,0,0,1,0-3h21.49a1.5,1.5,0,0,1,0,3" transform="translate(324.091 56.873)"/>
          <path id="Path_2139" data-name="Path 2139" d="M195.7,31.38H122.891a1.5,1.5,0,0,1,0-3H195.7a1.5,1.5,0,1,1,0,3" transform="translate(243.298 56.873)"/>
          <path id="Path_2140" data-name="Path 2140" d="M79.457,43.223a8.606,8.606,0,1,1,8.6-8.607,8.618,8.618,0,0,1-8.6,8.607m0-14.207a5.6,5.6,0,1,0,5.6,5.6,5.608,5.608,0,0,0-5.6-5.6" transform="translate(142.004 52.135)"/>
          <path id="Path_2141" data-name="Path 2141" d="M72.468,43.223a8.606,8.606,0,1,1,8.607-8.607,8.615,8.615,0,0,1-8.607,8.607m0-14.207a5.6,5.6,0,1,0,5.6,5.6,5.6,5.6,0,0,0-5.6-5.6" transform="translate(128.008 52.135)"/>
          <path id="Path_2142" data-name="Path 2142" d="M39.077,43.223a8.606,8.606,0,1,1,8.6-8.607,8.618,8.618,0,0,1-8.6,8.607m0-14.207a5.6,5.6,0,1,0,5.6,5.6,5.608,5.608,0,0,0-5.6-5.6" transform="translate(61.071 52.135)"/>
          <path id="Path_2143" data-name="Path 2143" d="M32.107,43.223a8.606,8.606,0,1,1,8.607-8.607,8.617,8.617,0,0,1-8.607,8.607m0-14.207a5.6,5.6,0,1,0,5.6,5.6,5.606,5.606,0,0,0-5.6-5.6" transform="translate(47.107 52.135)"/>
          <path id="Path_2144" data-name="Path 2144" d="M25.14,43.223a8.606,8.606,0,1,1,8.607-8.607,8.617,8.617,0,0,1-8.607,8.607m0-14.207a5.6,5.6,0,1,0,5.6,5.6,5.606,5.606,0,0,0-5.6-5.6" transform="translate(33.143 52.135)"/>
          <path id="Path_2145" data-name="Path 2145" d="M111.748,31.38H38.939a1.5,1.5,0,1,1,0-3h72.809a1.5,1.5,0,1,1,0,3" transform="translate(75.034 56.873)"/>
        </g>
      </g>
      <text id="_7_7_m" data-name="7,7 m" transform="translate(766.547 1752.728)" fill="#fff" font-size="36" font-family="ArialMT, Arial" letter-spacing="-0.02em"><tspan x="0" y="33">7,7 m</tspan></text>
      <text id="_7_7_m-2" data-name="7,7 m" transform="translate(1018.547 1752.728)" fill="#fff" font-size="36" font-family="ArialMT, Arial" letter-spacing="-0.02em"><tspan x="0" y="33">7,7 m</tspan></text>
    </g>
    <g id="Group_2912" data-name="Group 2912" transform="translate(152.453 2289.272)">
      <g id="Group_2900-2" data-name="Group 2900" transform="translate(687.547 1734.727)">
        <g id="Group_2899-2" data-name="Group 2899" transform="translate(0 0)" clip-path="url(#clip-path)">
          <path id="Path_2125-2" data-name="Path 2125" d="M167.76,57.76a1.5,1.5,0,0,1-1.5-1.5V9.689a1.5,1.5,0,0,1,1.5-1.5h38.374a1.5,1.5,0,0,1,1.268.7l4.041,6.366a1.5,1.5,0,0,1-1.268,2.3h-19.7V33.162L201,36.244a1.5,1.5,0,0,1,1.082,1.439v5.089a1.5,1.5,0,0,1-3,0V38.81L188.547,35.73a1.5,1.5,0,0,1-1.079-1.439V16.052a1.5,1.5,0,0,1,1.5-1.5h18.47l-2.13-3.359H169.262V56.258a1.5,1.5,0,0,1-1.5,1.5" transform="translate(333.229 16.408)"/>
          <path id="Path_2126-2" data-name="Path 2126" d="M196.6,15.063a1.6,1.6,0,0,1-.439-.063l-26.9-8.175V13.56a1.5,1.5,0,0,1-3,0V4.8A1.509,1.509,0,0,1,168.2,3.358l28.844,8.763a1.5,1.5,0,0,1-.439,2.941" transform="translate(333.227 6.601)"/>
          <path id="Path_2127-2" data-name="Path 2127" d="M87.453,71.667H318.546a3,3,0,0,0,3-3V3.5a3,3,0,0,0-3-3H87.453a3,3,0,0,0-3,3V68.669a3,3,0,0,0,3,3" transform="translate(169.266 1)"/>
          <path id="Path_2128-2" data-name="Path 2128" d="M319.548,74.169H88.452a4.5,4.5,0,0,1-4.5-4.5V4.5a4.5,4.5,0,0,1,4.5-4.5h231.1a4.5,4.5,0,0,1,4.5,4.5V69.669a4.5,4.5,0,0,1-4.5,4.5M88.452,3a1.5,1.5,0,0,0-1.5,1.493V69.669a1.5,1.5,0,0,0,1.5,1.5h231.1a1.5,1.5,0,0,0,1.5-1.5V4.5A1.5,1.5,0,0,0,319.548,3Z" transform="translate(168.264 -0.001)"/>
          <path id="Path_2129-2" data-name="Path 2129" d="M3.5,71.667h231.1a3,3,0,0,0,3-3V3.5a3,3,0,0,0-3-3H3.5a3,3,0,0,0-3,3V68.669a3,3,0,0,0,3,3" transform="translate(1.002 1)"/>
          <path id="Path_2130-2" data-name="Path 2130" d="M235.593,74.169H4.5a4.5,4.5,0,0,1-4.5-4.5V4.5A4.5,4.5,0,0,1,4.5,0H235.593a4.5,4.5,0,0,1,4.5,4.5V69.669a4.5,4.5,0,0,1-4.5,4.5M4.5,3A1.5,1.5,0,0,0,3,4.5V69.669a1.5,1.5,0,0,0,1.5,1.5H235.593a1.5,1.5,0,0,0,1.5-1.5V4.5A1.5,1.5,0,0,0,235.593,3Z" transform="translate(0 -0.001)"/>
          <path id="Path_2131-2" data-name="Path 2131" d="M186.528,67.6h-6.97a1.5,1.5,0,1,1,0-3h5.468V11.808a1.5,1.5,0,0,1,3,0V66.1a1.5,1.5,0,0,1-1.5,1.5" transform="translate(356.875 20.655)"/>
          <path id="Path_2132-2" data-name="Path 2132" d="M179.693,43.223a8.606,8.606,0,1,1,8.607-8.607,8.617,8.617,0,0,1-8.607,8.607m0-14.207a5.6,5.6,0,1,0,5.6,5.6,5.606,5.606,0,0,0-5.6-5.6" transform="translate(342.911 52.135)"/>
          <path id="Path_2133-2" data-name="Path 2133" d="M163.406,43.223a8.606,8.606,0,1,1,8.607-8.607,8.617,8.617,0,0,1-8.607,8.607m0-14.207a5.6,5.6,0,1,0,5.6,5.6,5.606,5.606,0,0,0-5.6-5.6" transform="translate(310.267 52.135)"/>
          <path id="Path_2134-2" data-name="Path 2134" d="M156.423,43.223a8.606,8.606,0,1,1,8.607-8.607,8.617,8.617,0,0,1-8.607,8.607m0-14.207a5.6,5.6,0,1,0,5.6,5.6,5.606,5.606,0,0,0-5.6-5.6" transform="translate(296.272 52.135)"/>
          <path id="Path_2135-2" data-name="Path 2135" d="M123.026,43.223a8.606,8.606,0,1,1,8.607-8.607,8.617,8.617,0,0,1-8.607,8.607m0-14.207a5.6,5.6,0,1,0,5.6,5.6,5.606,5.606,0,0,0-5.6-5.6" transform="translate(229.334 52.135)"/>
          <path id="Path_2136-2" data-name="Path 2136" d="M116.059,43.223a8.606,8.606,0,1,1,8.607-8.607,8.617,8.617,0,0,1-8.607,8.607m0-14.207a5.6,5.6,0,1,0,5.6,5.6,5.606,5.606,0,0,0-5.6-5.6" transform="translate(215.371 52.135)"/>
          <path id="Path_2137-2" data-name="Path 2137" d="M109.093,43.223a8.606,8.606,0,1,1,8.6-8.607,8.615,8.615,0,0,1-8.6,8.607m0-14.207a5.6,5.6,0,1,0,5.6,5.6,5.606,5.606,0,0,0-5.6-5.6" transform="translate(201.409 52.135)"/>
          <path id="Path_2138-2" data-name="Path 2138" d="M184.691,31.38H163.2a1.5,1.5,0,0,1,0-3h21.49a1.5,1.5,0,0,1,0,3" transform="translate(324.091 56.873)"/>
          <path id="Path_2139-2" data-name="Path 2139" d="M195.7,31.38H122.891a1.5,1.5,0,0,1,0-3H195.7a1.5,1.5,0,1,1,0,3" transform="translate(243.298 56.873)"/>
          <path id="Path_2140-2" data-name="Path 2140" d="M79.457,43.223a8.606,8.606,0,1,1,8.6-8.607,8.618,8.618,0,0,1-8.6,8.607m0-14.207a5.6,5.6,0,1,0,5.6,5.6,5.608,5.608,0,0,0-5.6-5.6" transform="translate(142.004 52.135)"/>
          <path id="Path_2141-2" data-name="Path 2141" d="M72.468,43.223a8.606,8.606,0,1,1,8.607-8.607,8.615,8.615,0,0,1-8.607,8.607m0-14.207a5.6,5.6,0,1,0,5.6,5.6,5.6,5.6,0,0,0-5.6-5.6" transform="translate(128.008 52.135)"/>
          <path id="Path_2142-2" data-name="Path 2142" d="M39.077,43.223a8.606,8.606,0,1,1,8.6-8.607,8.618,8.618,0,0,1-8.6,8.607m0-14.207a5.6,5.6,0,1,0,5.6,5.6,5.608,5.608,0,0,0-5.6-5.6" transform="translate(61.071 52.135)"/>
          <path id="Path_2143-2" data-name="Path 2143" d="M32.107,43.223a8.606,8.606,0,1,1,8.607-8.607,8.617,8.617,0,0,1-8.607,8.607m0-14.207a5.6,5.6,0,1,0,5.6,5.6,5.606,5.606,0,0,0-5.6-5.6" transform="translate(47.107 52.135)"/>
          <path id="Path_2144-2" data-name="Path 2144" d="M25.14,43.223a8.606,8.606,0,1,1,8.607-8.607,8.617,8.617,0,0,1-8.607,8.607m0-14.207a5.6,5.6,0,1,0,5.6,5.6,5.606,5.606,0,0,0-5.6-5.6" transform="translate(33.143 52.135)"/>
          <path id="Path_2145-2" data-name="Path 2145" d="M111.748,31.38H38.939a1.5,1.5,0,1,1,0-3h72.809a1.5,1.5,0,1,1,0,3" transform="translate(75.034 56.873)"/>
        </g>
      </g>
      <text id="_6_5_m" data-name="6,5 m" transform="translate(764.547 1751.728)" fill="#fff" font-size="36" font-family="ArialMT, Arial" letter-spacing="-0.02em"><tspan x="0" y="33">6,5 m</tspan></text>
      <text id="_9_1_m" data-name="9,1 m" transform="translate(1018.547 1751.728)" fill="#fff" font-size="36" font-family="ArialMT, Arial" letter-spacing="-0.02em"><tspan x="0" y="33">9,1 m</tspan></text>
    </g>
  </g>
</svg>
